<?xml version="1.0" encoding="UTF-8"?>
<svg id="Dimensions" xmlns="http://www.w3.org/2000/svg" viewBox="0 0 500 500">
  <defs>
    <style>
      .cls-1 {
        fill: #fa0;
        stroke-width: 0px;
      }
    </style>
  </defs>
  <path class="cls-1" d="M248.98,238.48c0,2.37-.42,4.57-1.26,6.6-.84,2.03-1.98,3.82-3.42,5.38,1.43,1.56,2.57,3.35,3.42,5.38.84,2.03,1.26,4.2,1.26,6.5v17.59s0,0,0,0c-6.51,0-11.79-5.28-11.79-11.79v-5.8c0-1.68-.59-3.12-1.78-4.3-1.19-1.18-2.62-1.81-4.3-1.87h-14.69c0-6.36,5.15-11.51,11.51-11.51h3.74c1.56-.12,2.87-.78,3.93-1.97,1.06-1.18,1.59-2.59,1.59-4.21s-.51-2.92-1.54-4.07c-1.03-1.15-2.29-1.86-3.79-2.11h-20.4v35.65c0,6.62-5.36,11.98-11.98,11.98h0v-49.41c0-5.27,4.27-9.55,9.55-9.55h22.64c2.37,0,4.62.47,6.74,1.4,2.12.94,3.96,2.2,5.52,3.79,1.56,1.59,2.79,3.43,3.7,5.52.9,2.09,1.36,4.35,1.36,6.78Z"/>
  <path class="cls-1" d="M284.77,223.32c3.59,1.56,6.71,3.67,9.36,6.32,2.65,2.65,4.76,5.77,6.32,9.36,1.56,3.59,2.34,7.41,2.34,11.46s-.76,7.86-2.29,11.42c-1.53,3.56-3.62,6.68-6.27,9.36-2.65,2.68-5.76,4.8-9.31,6.36-3.56,1.56-7.36,2.34-11.42,2.34h-17.03c0-6.56,5.32-11.88,11.88-11.88h5.05c2.43,0,4.71-.47,6.83-1.4,2.12-.94,3.98-2.2,5.57-3.79,1.59-1.59,2.85-3.45,3.79-5.57.94-2.12,1.4-4.4,1.4-6.83s-.47-4.71-1.4-6.83c-.94-2.12-2.2-3.98-3.79-5.57-1.59-1.59-3.45-2.85-5.57-3.79-2.12-.94-4.4-1.4-6.83-1.4h-5.05c-6.56,0-11.88-5.32-11.88-11.88h0s16.84,0,16.84,0c4.05,0,7.88.78,11.46,2.34Z"/>
  <path class="cls-1" d="M352.83,220.98h4.23v35.56c0,3.24-.61,6.29-1.82,9.12-1.22,2.84-2.89,5.32-5.01,7.44-2.12,2.12-4.6,3.79-7.44,5.01-2.84,1.22-5.88,1.82-9.12,1.82s-6.29-.61-9.12-1.82c-2.84-1.22-5.32-2.88-7.44-5.01-2.12-2.12-3.79-4.6-5.01-7.44-1.22-2.84-1.82-5.88-1.82-9.12v-35.56h4.23c4.28,0,7.74,3.47,7.74,7.74v27.82c0,1.56.3,3.04.89,4.45.59,1.4,1.4,2.62,2.43,3.65s2.25,1.84,3.65,2.43c1.4.59,2.89.89,4.45.89s3.04-.3,4.45-.89c1.4-.59,2.62-1.4,3.65-2.43s1.84-2.25,2.43-3.65c.59-1.4.89-2.89.89-4.45v-27.82c0-4.28,3.47-7.74,7.74-7.74Z"/>
  <path class="cls-1" d="M414.05,238.48c0,2.37-.42,4.57-1.26,6.6-.84,2.03-1.98,3.82-3.42,5.38,1.43,1.56,2.57,3.35,3.42,5.38.84,2.03,1.26,4.2,1.26,6.5v17.59h0c-6.51,0-11.79-5.28-11.79-11.79v-5.8c0-1.68-.59-3.12-1.78-4.3-1.19-1.18-2.62-1.81-4.3-1.87h-14.69c0-6.36,5.15-11.51,11.51-11.51h3.74c1.56-.12,2.87-.78,3.93-1.97,1.06-1.18,1.59-2.59,1.59-4.21s-.51-2.92-1.54-4.07c-1.03-1.15-2.29-1.86-3.79-2.11h-20.4v35.65c0,6.62-5.36,11.98-11.98,11.98h0v-49.41c0-5.27,4.27-9.55,9.55-9.55h22.64c2.37,0,4.62.47,6.74,1.4,2.12.94,3.96,2.2,5.52,3.79,1.56,1.59,2.79,3.43,3.7,5.52.9,2.09,1.36,4.35,1.36,6.78Z"/>
  <path class="cls-1" d="M451.02,220.98c4.05,0,7.88.78,11.46,2.34,3.59,1.56,6.71,3.67,9.36,6.32,2.65,2.65,4.76,5.77,6.32,9.36,1.56,3.59,2.34,7.41,2.34,11.46s-.78,7.88-2.34,11.46c-1.56,3.59-3.67,6.72-6.32,9.4-2.65,2.68-5.77,4.79-9.36,6.32-3.59,1.53-7.41,2.29-11.46,2.29s-7.88-.76-11.46-2.29c-3.59-1.53-6.72-3.63-9.4-6.32-2.68-2.68-4.79-5.82-6.32-9.4-1.53-3.59-2.29-7.41-2.29-11.46s.76-7.88,2.29-11.46c1.53-3.59,3.63-6.71,6.32-9.36,2.68-2.65,5.82-4.76,9.4-6.32,3.59-1.56,7.41-2.34,11.46-2.34ZM451.11,268.06c2.43,0,4.71-.47,6.83-1.4,2.12-.94,3.98-2.2,5.57-3.79,1.59-1.59,2.85-3.45,3.79-5.57.94-2.12,1.4-4.4,1.4-6.83s-.47-4.71-1.4-6.83c-.94-2.12-2.2-3.98-3.79-5.57-1.59-1.59-3.45-2.85-5.57-3.79-2.12-.94-4.4-1.4-6.83-1.4s-4.71.47-6.83,1.4c-2.12.94-3.98,2.2-5.57,3.79s-2.84,3.45-3.74,5.57c-.9,2.12-1.36,4.4-1.36,6.83s.45,4.71,1.36,6.83c.9,2.12,2.15,3.98,3.74,5.57,1.59,1.59,3.45,2.85,5.57,3.79,2.12.94,4.4,1.4,6.83,1.4Z"/>
  <path class="cls-1" d="M190.78,234.84c-1.23-2.86-2.91-5.37-5.05-7.51-2.14-2.14-4.64-3.83-7.51-5.05-2.87-1.23-5.94-1.84-9.21-1.84s-6.34.61-9.21,1.84c-2.87,1.23-5.37,2.91-7.51,5.05-2.14,2.14-3.83,4.64-5.05,7.51-1.23,2.87-1.84,5.94-1.84,9.21v35.89h4.35c4.28,0,7.74-3.47,7.74-7.74v-28.15c0-1.57.3-3.07.9-4.49.6-1.42,1.42-2.64,2.46-3.68,1.04-1.04,2.27-1.86,3.68-2.46,1.42-.6,2.91-.9,4.49-.9s3.07.3,4.49.9c1.42.6,2.64,1.42,3.68,2.46,1.04,1.04,1.86,2.27,2.46,3.68.6,1.42.9,2.91.9,4.49v23.99h0c0,6.57,5.33,11.9,11.9,11.9h.19v-35.89c0-3.27-.61-6.34-1.84-9.21Z"/>
  <g>
    <path class="cls-1" d="M19.51,220.06l32.16,52.31c.92,1.35,1.86,2.56,2.84,3.59,3.68,3.91,9.51,5.13,14.29,2.68,1.84-.94,3.27-2.29,4.26-4.08.17-.3.33-.6.52-.89l5.46-8.38c-3.36,1.14-6.04.67-8.24-.99-.9-.68-1.63-1.54-2.22-2.49l-23.03-37.09c-1.72-2.99-4.28-4.6-7.61-4.67h-18.42Z"/>
    <path class="cls-1" d="M83.14,220.44l25.28,40.89c.53.85,1.15,1.64,1.91,2.3,2.29,2.01,5.06,2.55,8.31,1.7l-2.81,4.56c-.5.81-.95,1.64-1.4,2.48-2.1,3.91-5.01,6.34-8.74,7.24-1.12.27-2.29.37-3.44.29-3.86-.29-6.97-2.33-9.4-5.94l-18.39-29.84c-1.84-2.98-1.83-6.74.02-9.71l8.68-13.97Z"/>
    <path class="cls-1" d="M146.22,220.44l-22.93,37.87-9.59-15.34c-.12-.2-.22-.41-.29-.63,0-.02-.01-.04-.02-.05-.74-2.51-.32-5.22,1.02-7.46l5.6-9.33c.98-1.63,2.32-3.03,3.96-3.99.02-.01.04-.02.06-.03,1.21-.69,2.59-1.03,3.99-1.03h18.2Z"/>
  </g>
</svg>