<?xml version="1.0" encoding="utf-8"?>
<!-- Generator: Adobe Illustrator 28.2.0, SVG Export Plug-In . SVG Version: 6.00 Build 0)  -->
<svg version="1.1" id="Dimensions" xmlns="http://www.w3.org/2000/svg" xmlns:xlink="http://www.w3.org/1999/xlink" x="0px" y="0px"
	 viewBox="0 0 500 500" style="enable-background:new 0 0 500 500;" xml:space="preserve">
<style type="text/css">
	.st0{fill:#FFAA00;}
</style>
<path class="st0" d="M6,134.7l123.9,201.5c3.5,5.2,7.2,9.8,10.9,13.8c14.2,15.1,36.6,19.7,55,10.3c7.1-3.6,12.6-8.8,16.4-15.7
	c0.6-1.2,1.3-2.3,2-3.4l21-32.3c-12.9,4.4-23.3,2.6-31.7-3.8c-3.4-2.6-6.3-5.9-8.6-9.6l-88.7-142.8c-6.6-11.5-16.5-17.7-29.3-18
	L6,134.7L6,134.7z"/>
<path class="st0" d="M251.1,136.2l97.4,157.5c2,3.3,4.4,6.3,7.3,8.9c8.8,7.7,19.5,9.8,32,6.5L377,326.6c-1.9,3.1-3.7,6.3-5.4,9.6
	c-8.1,15.1-19.3,24.4-33.7,27.9c-4.3,1-8.8,1.4-13.2,1.1c-14.9-1.1-26.9-9-36.2-22.9l-70.8-114.9c-7.1-11.5-7-26,0.1-37.4
	L251.1,136.2L251.1,136.2z"/>
<path class="st0" d="M494,136.2L405.7,282l-36.9-59.1c-0.5-0.8-0.9-1.6-1.1-2.4c0-0.1,0-0.1-0.1-0.2c-2.9-9.7-1.3-20.1,3.9-28.7
	l21.6-35.9c3.8-6.3,8.9-11.7,15.2-15.4c0.1,0,0.1-0.1,0.2-0.1c4.7-2.7,10-4,15.4-4L494,136.2L494,136.2z"/>
</svg>
