<?xml version="1.0" encoding="UTF-8"?>
<svg id="Dimensions" xmlns="http://www.w3.org/2000/svg" viewBox="0 0 500 500">
  <defs>
    <style>
      .cls-1 {
        fill: #fa0;
        stroke-width: 0px;
      }
    </style>
  </defs>
  <path class="cls-1" d="M13,138.03l120.31,195.7c3.43,5.05,6.96,9.56,10.61,13.44,13.77,14.64,35.57,19.18,53.46,10.02,6.88-3.52,12.24-8.56,15.92-15.26.62-1.12,1.24-2.25,1.94-3.32l20.42-31.34c-12.56,4.28-22.61,2.5-30.82-3.7-3.35-2.53-6.1-5.76-8.31-9.32l-86.17-138.74c-6.44-11.19-16.02-17.19-28.46-17.47H13Z"/>
  <path class="cls-1" d="M251.05,139.43l94.57,152.97c1.97,3.18,4.32,6.14,7.13,8.61,8.55,7.5,18.92,9.53,31.08,6.35l-10.5,17.07c-1.86,3.03-3.57,6.14-5.25,9.27-7.85,14.64-18.73,23.71-32.7,27.09-4.21,1.02-8.55,1.4-12.86,1.08-14.46-1.07-26.09-8.7-35.18-22.23l-68.8-111.62c-6.87-11.15-6.85-25.22.06-36.34l32.45-52.25Z"/>
  <path class="cls-1" d="M487,139.43l-85.78,141.67-35.87-57.38c-.46-.74-.84-1.52-1.09-2.35-.02-.07-.04-.14-.06-.2-2.78-9.39-1.21-19.53,3.83-27.92l20.94-34.91c3.66-6.1,8.66-11.35,14.8-14.93.07-.04.14-.08.22-.13,4.52-2.6,9.7-3.85,14.92-3.85h68.09Z"/>
</svg>